<svg width="64" height="64" viewBox="0 0 64 64" fill="none" xmlns="http://www.w3.org/2000/svg">
<path d="M32 44.8C24.9307 44.8 19.2 39.0692 19.2 32C19.2 24.9307 24.9307 19.2 32 19.2C39.0692 19.2 44.8 24.9307 44.8 32C44.8 39.0692 39.0692 44.8 32 44.8Z" fill="#38B2AC"/>
<path d="M7.2027 36.3725C3.49337 37.0266 0.95082 40.6097 2.37471 44.0969C4.36264 48.9651 7.53412 53.3026 11.6457 56.6921C17.525 61.5384 24.9405 64.128 32.5586 63.9951C40.1767 63.8622 47.4975 61.0153 53.2041 55.9665C57.1947 52.4359 60.213 47.9902 62.0299 43.0556C63.3313 39.5209 60.665 36.0286 56.9351 35.5044C53.2054 34.9803 49.8565 37.6952 48.0142 40.9805C47.0155 42.7612 45.7191 44.3768 44.1661 45.7508C40.8918 48.6477 36.6915 50.281 32.3207 50.3573C27.9497 50.4335 23.695 48.9479 20.3218 46.1671C18.7216 44.848 17.3697 43.2787 16.3095 41.5339C14.3536 38.3149 10.912 35.7184 7.2027 36.3725Z" fill="#38B2AC"/>
<path d="M63.7525 35.9989C63.916 34.6889 64 33.3542 64 32C64 14.3269 49.6732 0 32 0C14.3269 0 0 14.3269 0 32C0 33.738 0.13856 35.4436 0.405248 37.1066C1.87507 35.0944 4.16909 33.658 6.64695 33.2211C9.32789 32.7484 11.7644 33.3986 13.8246 34.614C13.7029 33.7602 13.6399 32.8875 13.6399 32C13.6399 21.8601 21.8601 13.6399 32 13.6399C42.1399 13.6399 50.3601 21.8601 50.3601 32C50.3601 32.6686 50.3243 33.3289 50.2547 33.9789C52.2714 32.6918 54.6842 31.9565 57.3805 32.3356C59.8714 32.6857 62.2133 34.0403 63.7525 35.9989Z" fill="#234E52"/>
</svg>
