<svg width="306" height="64" viewBox="0 0 306 64" fill="none" xmlns="http://www.w3.org/2000/svg">
<path d="M32 44.8C24.9307 44.8 19.2 39.0692 19.2 32C19.2 24.9307 24.9307 19.2 32 19.2C39.0692 19.2 44.8 24.9307 44.8 32C44.8 39.0692 39.0692 44.8 32 44.8Z" fill="#38B2AC"/>
<path d="M7.2027 36.3725C3.49337 37.0266 0.95082 40.6097 2.37471 44.0969C4.36264 48.9651 7.53412 53.3026 11.6457 56.6921C17.525 61.5384 24.9405 64.128 32.5586 63.9951C40.1767 63.8622 47.4975 61.0153 53.2041 55.9665C57.1947 52.4359 60.213 47.9902 62.0299 43.0556C63.3313 39.5209 60.665 36.0286 56.9351 35.5044C53.2054 34.9803 49.8565 37.6952 48.0142 40.9805C47.0155 42.7612 45.7191 44.3768 44.1661 45.7508C40.8918 48.6477 36.6915 50.281 32.3207 50.3573C27.9497 50.4335 23.695 48.9479 20.3218 46.1671C18.7216 44.848 17.3697 43.2787 16.3095 41.5339C14.3536 38.3149 10.912 35.7184 7.2027 36.3725Z" fill="#38B2AC"/>
<path d="M63.7525 35.9989C63.916 34.6889 64 33.3542 64 32C64 14.3269 49.6732 0 32 0C14.3269 0 0 14.3269 0 32C0 33.738 0.13856 35.4436 0.405248 37.1066C1.87507 35.0944 4.16909 33.658 6.64695 33.2211C9.32789 32.7484 11.7644 33.3986 13.8246 34.614C13.7029 33.7602 13.6399 32.8875 13.6399 32C13.6399 21.8601 21.8601 13.6399 32 13.6399C42.1399 13.6399 50.3601 21.8601 50.3601 32C50.3601 32.6686 50.3243 33.3289 50.2547 33.9789C52.2714 32.6918 54.6842 31.9565 57.3805 32.3356C59.8714 32.6857 62.2133 34.0403 63.7525 35.9989Z" fill="#234E52"/>
<path d="M88.7042 48H76.4315L81.8647 15.2727H93.7699C97.0938 15.2727 99.8636 15.9492 102.08 17.3022C104.306 18.6445 105.877 20.5728 106.794 23.087C107.721 25.5906 107.896 28.5735 107.321 32.0359C106.767 35.381 105.654 38.2468 103.981 40.6332C102.319 43.0195 100.189 44.8466 97.5891 46.1143C94.9897 47.3714 92.0281 48 88.7042 48ZM85.4442 41.2564H89.1996C91.032 41.2564 92.6513 40.9261 94.0575 40.2656C95.4744 39.5945 96.6463 38.5238 97.5732 37.0536C98.5 35.5728 99.1605 33.6286 99.5547 31.2209C99.9382 28.9197 99.9222 27.1033 99.5067 25.7717C99.1019 24.4293 98.3136 23.4705 97.1417 22.8952C95.9805 22.3093 94.4624 22.0163 92.5874 22.0163H88.6562L85.4442 41.2564ZM120.712 48.4634C118.145 48.4634 116.014 47.9574 114.32 46.9453C112.637 45.9226 111.455 44.4684 110.773 42.5827C110.091 40.6864 109.968 38.4332 110.405 35.8232C110.831 33.2876 111.7 31.0717 113.01 29.1754C114.331 27.2685 115.993 25.7876 117.996 24.733C119.999 23.6676 122.23 23.1349 124.691 23.1349C126.439 23.1349 127.989 23.4066 129.342 23.9499C130.695 24.4933 131.813 25.3029 132.697 26.3789C133.582 27.4442 134.184 28.7546 134.503 30.31C134.823 31.8654 134.812 33.6499 134.471 35.6634L134.168 37.6129H112.85L113.569 33.0746H127.632C127.76 32.2436 127.69 31.5032 127.424 30.8533C127.158 30.2035 126.726 29.6974 126.13 29.3352C125.544 28.9624 124.825 28.7759 123.972 28.7759C123.109 28.7759 122.3 28.9783 121.543 29.3832C120.798 29.7773 120.164 30.31 119.642 30.9812C119.12 31.6523 118.779 32.4087 118.619 33.2504L117.772 37.9006C117.602 38.9339 117.65 39.8182 117.916 40.5533C118.182 41.2884 118.64 41.853 119.29 42.2472C119.94 42.6307 120.776 42.8224 121.799 42.8224C122.481 42.8224 123.12 42.7319 123.717 42.5508C124.313 42.359 124.846 42.0767 125.315 41.7038C125.794 41.3203 126.183 40.8569 126.481 40.3136L133.608 40.5213C133.033 42.13 132.143 43.5309 130.94 44.7241C129.736 45.9066 128.266 46.8281 126.529 47.4886C124.803 48.1385 122.864 48.4634 120.712 48.4634ZM136.417 48L141.85 15.2727H149.664L147.635 27.6573H147.795C148.221 26.9116 148.785 26.1925 149.489 25.5C150.202 24.8075 151.06 24.2429 152.061 23.8061C153.063 23.3587 154.208 23.1349 155.497 23.1349C157.202 23.1349 158.72 23.5824 160.051 24.4773C161.383 25.3722 162.353 26.7518 162.96 28.6161C163.567 30.4805 163.631 32.8562 163.152 35.7433C162.693 38.5238 161.868 40.8516 160.675 42.7266C159.481 44.6016 158.059 46.0078 156.408 46.9453C154.767 47.8828 153.041 48.3516 151.23 48.3516C149.995 48.3516 148.956 48.1491 148.114 47.7443C147.283 47.3395 146.617 46.8068 146.117 46.1463C145.627 45.4858 145.286 44.7773 145.094 44.021H144.79L144.151 48H136.417ZM146.117 35.7273C145.904 37.0483 145.893 38.1989 146.085 39.179C146.287 40.1591 146.676 40.9208 147.251 41.4641C147.837 41.9968 148.61 42.2631 149.568 42.2631C150.527 42.2631 151.385 41.9968 152.141 41.4641C152.898 40.9208 153.532 40.1591 154.043 39.179C154.554 38.1989 154.916 37.0483 155.13 35.7273C155.343 34.4062 155.353 33.261 155.161 32.2915C154.98 31.3221 154.602 30.571 154.027 30.0384C153.452 29.5057 152.679 29.2393 151.71 29.2393C150.751 29.2393 149.888 29.5004 149.121 30.0224C148.365 30.5444 147.725 31.2901 147.203 32.2596C146.692 33.229 146.33 34.3849 146.117 35.7273ZM183.147 23.4545L182.172 29.2074H166.687L167.662 23.4545H183.147ZM171.865 17.5739H179.679L175.908 40.2816C175.833 40.761 175.844 41.1499 175.94 41.4482C176.046 41.7358 176.238 41.9435 176.515 42.0714C176.803 42.1886 177.154 42.2472 177.57 42.2472C177.857 42.2472 178.177 42.2152 178.528 42.1513C178.88 42.0874 179.146 42.0394 179.327 42.0075L179.583 47.6484C179.168 47.7656 178.608 47.8988 177.905 48.0479C177.213 48.2077 176.403 48.3089 175.476 48.3516C173.601 48.4261 172.051 48.2077 170.826 47.6964C169.612 47.1744 168.754 46.3647 168.253 45.2674C167.763 44.1701 167.667 42.7958 167.966 41.1445L171.865 17.5739ZM206.945 30.9492L199.898 31.141C199.908 30.619 199.791 30.1609 199.546 29.7667C199.301 29.3619 198.955 29.0476 198.508 28.8239C198.06 28.6001 197.527 28.4883 196.91 28.4883C195.908 28.4883 195.008 28.712 194.209 29.1594C193.421 29.6069 192.978 30.1875 192.883 30.9013C192.808 31.2848 192.915 31.6204 193.202 31.908C193.49 32.185 194.129 32.43 195.12 32.6431L199.722 33.538C202.087 34.0067 203.802 34.8217 204.868 35.983C205.944 37.1335 206.327 38.657 206.018 40.5533C205.741 42.1726 205.027 43.5735 203.877 44.756C202.737 45.9386 201.283 46.8548 199.514 47.5046C197.756 48.1438 195.812 48.4634 193.682 48.4634C190.081 48.4634 187.364 47.739 185.532 46.2901C183.71 44.8306 182.858 42.897 182.975 40.4893L190.581 40.2976C190.613 41.2031 190.917 41.8849 191.492 42.343C192.078 42.7905 192.872 43.0249 193.873 43.0462C194.971 43.0675 195.919 42.8384 196.718 42.359C197.517 41.8796 197.964 41.2884 198.06 40.5852C198.124 40.1271 197.97 39.7702 197.597 39.5146C197.234 39.2589 196.558 39.0298 195.567 38.8274L191.412 38.0124C189.026 37.5543 187.3 36.6914 186.235 35.4237C185.18 34.1452 184.818 32.5153 185.148 30.5337C185.425 28.957 186.075 27.62 187.098 26.5227C188.131 25.4148 189.479 24.5732 191.141 23.9979C192.813 23.4226 194.72 23.1349 196.862 23.1349C200.292 23.1349 202.881 23.8327 204.628 25.2283C206.386 26.6133 207.158 28.5202 206.945 30.9492ZM208.619 48L214.052 15.2727H236.392L235.306 21.6967H220.876L219.789 28.4084H232.797L231.71 34.8484H218.702L216.529 48H208.619ZM234.459 48L238.55 23.4545H246.14L245.389 27.929H245.645C246.359 26.3097 247.291 25.1058 248.441 24.3175C249.592 23.5185 250.838 23.119 252.181 23.119C252.543 23.119 252.905 23.1456 253.267 23.1989C253.64 23.2415 253.992 23.3054 254.322 23.3906L253.172 30.1982C252.809 30.0597 252.335 29.9585 251.749 29.8945C251.163 29.82 250.631 29.7827 250.151 29.7827C249.224 29.7827 248.362 29.9904 247.562 30.4059C246.774 30.8107 246.103 31.3807 245.549 32.1158C245.006 32.8402 244.649 33.6925 244.478 34.6726L242.273 48H234.459ZM263.535 48.4634C260.967 48.4634 258.836 47.9574 257.143 46.9453C255.459 45.9226 254.277 44.4684 253.595 42.5827C252.913 40.6864 252.791 38.4332 253.227 35.8232C253.654 33.2876 254.522 31.0717 255.832 29.1754C257.153 27.2685 258.815 25.7876 260.818 24.733C262.821 23.6676 265.053 23.1349 267.514 23.1349C269.261 23.1349 270.811 23.4066 272.164 23.9499C273.517 24.4933 274.635 25.3029 275.52 26.3789C276.404 27.4442 277.006 28.7546 277.325 30.31C277.645 31.8654 277.634 33.6499 277.294 35.6634L276.99 37.6129H255.672L256.392 33.0746H270.454C270.582 32.2436 270.513 31.5032 270.246 30.8533C269.98 30.2035 269.548 29.6974 268.952 29.3352C268.366 28.9624 267.647 28.7759 266.795 28.7759C265.932 28.7759 265.122 28.9783 264.366 29.3832C263.62 29.7773 262.986 30.31 262.464 30.9812C261.942 31.6523 261.601 32.4087 261.441 33.2504L260.594 37.9006C260.424 38.9339 260.472 39.8182 260.738 40.5533C261.004 41.2884 261.463 41.853 262.112 42.2472C262.762 42.6307 263.599 42.8224 264.621 42.8224C265.303 42.8224 265.942 42.7319 266.539 42.5508C267.135 42.359 267.668 42.0767 268.137 41.7038C268.616 41.3203 269.005 40.8569 269.303 40.3136L276.431 40.5213C275.855 42.13 274.966 43.5309 273.762 44.7241C272.558 45.9066 271.088 46.8281 269.351 47.4886C267.626 48.1385 265.687 48.4634 263.535 48.4634ZM290.649 48.4634C288.081 48.4634 285.951 47.9574 284.257 46.9453C282.574 45.9226 281.391 44.4684 280.709 42.5827C280.027 40.6864 279.905 38.4332 280.342 35.8232C280.768 33.2876 281.636 31.0717 282.946 29.1754C284.267 27.2685 285.929 25.7876 287.932 24.733C289.935 23.6676 292.167 23.1349 294.628 23.1349C296.375 23.1349 297.925 23.4066 299.278 23.9499C300.631 24.4933 301.75 25.3029 302.634 26.3789C303.518 27.4442 304.12 28.7546 304.44 30.31C304.759 31.8654 304.749 33.6499 304.408 35.6634L304.104 37.6129H282.787L283.506 33.0746H297.568C297.696 32.2436 297.627 31.5032 297.361 30.8533C297.094 30.2035 296.663 29.6974 296.066 29.3352C295.48 28.9624 294.761 28.7759 293.909 28.7759C293.046 28.7759 292.236 28.9783 291.48 29.3832C290.734 29.7773 290.1 30.31 289.578 30.9812C289.056 31.6523 288.715 32.4087 288.555 33.2504L287.709 37.9006C287.538 38.9339 287.586 39.8182 287.852 40.5533C288.119 41.2884 288.577 41.853 289.227 42.2472C289.877 42.6307 290.713 42.8224 291.736 42.8224C292.417 42.8224 293.057 42.7319 293.653 42.5508C294.25 42.359 294.782 42.0767 295.251 41.7038C295.731 41.3203 296.119 40.8569 296.418 40.3136L303.545 40.5213C302.97 42.13 302.08 43.5309 300.876 44.7241C299.672 45.9066 298.202 46.8281 296.466 47.4886C294.74 48.1385 292.801 48.4634 290.649 48.4634Z" fill="#E4FFFE"/>
</svg>
